<?xml version="1.0" encoding="utf-8"?>
<!-- Generator: Adobe Illustrator 17.1.0, SVG Export Plug-In . SVG Version: 6.00 Build 0)  -->
<!DOCTYPE svg PUBLIC "-//W3C//DTD SVG 1.1//EN" "http://www.w3.org/Graphics/SVG/1.1/DTD/svg11.dtd">
<svg version="1.1" id="Layer_1" xmlns="http://www.w3.org/2000/svg" xmlns:xlink="http://www.w3.org/1999/xlink" x="0px" y="0px"
	 viewBox="0 0 317 132" enable-background="new 0 0 317 132" xml:space="preserve">
<text transform="matrix(1 0 0 1 -157.8663 138.4579)" font-family="'DragonisComing'" font-size="50.8848">Laila</text>
<text transform="matrix(1 0 0 1 -198.1319 138.457)" font-family="'DragonisComing'" font-size="50.8848">Beit</text>
<text transform="matrix(1 0 0 1 -156.4328 220.4451)" font-family="'Dynalight-Regular'" font-size="30.3554">Laila</text>
<text transform="matrix(1 0 0 1 -200.5616 220.4451)" font-family="'Dynalight-Regular'" font-size="30.3554">Beit</text>
<text transform="matrix(1 0 0 1 157.6257 72.6887)" fill="#FFFFFF" font-family="'GreatVibes-Regular'" font-size="79.2572">Laila</text>
<text transform="matrix(1 0 0 1 16.298 72.6887)" fill="#FFFFFF" font-family="'GreatVibes-Regular'" font-size="79.2572">Beit</text>
<text transform="matrix(1 0 0 1 -148.3078 24.0909)" font-family="'LubalinGraphStd-Book'" font-size="30.3554">Laila</text>
<text transform="matrix(1 0 0 1 -206.8116 24.0909)" font-family="'LubalinGraphStd-Book'" font-size="30.3554">Beit</text>
<g>
	<g>
		<path fill="#FFFFFF" d="M297.9,119.8c5.4-3.2,10.5-7.5,13.7-13c4-6.8,0.4-13.1-5.1-17.4c-14.9-12-36.5-8.9-53.5-4.4
			c-13.4,3.6-26.3,9-39.5,13.5c-17.5,5.9-35.2,11.2-53.3,15.3c-24.6,5.6-49.7,9.2-74.9,9.6c-11.7,0.2-23.5-0.4-35.2-2
			c-11-1.6-22.8-4.3-31.9-11c-6-4.4-9.9-11.1-6.5-18.2c1.6-3.4,4.7-5.7,8.1-7.1c-4.4,1.8-1.1,0.5,0.8,0.3c1.6-0.1,3.3,0,4.9,0.2
			c4.1,0.4,8.2,1.5,12.1,2.8c1.9,0.6,5.1-2.5,7-1.9C35,83.3,26.7,83,17.1,85.6c-5.8,1.6-10.8,4.2-13,10.1
			c-5.6,15,18.4,23.1,28.5,25.5c18.6,4.5,38.4,4.7,57.4,3.6c26.1-1.4,51.9-6.1,77.2-12.5c17.9-4.5,35.6-9.7,53-15.6
			c19.5-6.6,38.2-16,59.4-13.3c9.3,1.2,20.3,5.3,25.4,13.8c5.9,9.8-6.6,20.1-14.1,24.4C292.9,120.5,295.9,120.9,297.9,119.8
			L297.9,119.8z"/>
	</g>
</g>
</svg>
